<?xml version='1.0' standalone='no'?>
<svg width='252.076171875' height='272.79296875' version='1.1' xmlns='http://www.w3.org/2000/svg' contentScriptType='text/javascript'>
<script  id="clientEventHandlersJS">
function OnClickLingTreeNode(node){}
</script>
<rect width="100%" height="100%" fill="#ffffff"/>
<text x="82.4398193359375" y="20.0" font-family="Arial" font-size="12.0" fill="#000000">IP</text>
<text x="32.17578125" y="53.40625" font-family="Arial" font-size="12.0" fill="#000000">NP</text>
<line x1="88.1087646484375" y1="25.54296875" x2="40.5107421875" y2="39.54296875" stroke="#000000" stroke-width="1.0"/>
<text x="10.0" y="86.8125" font-family="Arial" font-size="12.0" fill="#000000">Det</text>
<line x1="40.5107421875" y1="58.94921875" x2="19.3369140625" y2="72.94921875" stroke="#000000" stroke-width="1.0"/>
<text x="16.0" y="253.84375" font-family="Arial" font-size="12.0" fill="#ff0000">n</text>
<line x1="19.3369140625" y1="92.35546875" x2="19.3369140625" y2="239.98046875" stroke="#000000" stroke-width="1.0"/>
<text x="10.99609375" y="267.25" font-family="Arial" font-size="12.0" fill="#0000ff">the</text>
<text x="56.2060546875" y="86.8125" font-family="Arial" font-size="12.0" fill="#000000">N'</text>
<line x1="40.5107421875" y1="58.94921875" x2="61.6845703125" y2="72.94921875" stroke="#000000" stroke-width="1.0"/>
<text x="57.3515625" y="120.21875" font-family="Arial" font-size="12.0" fill="#000000">N</text>
<line x1="61.6845703125" y1="92.35546875" x2="61.6845703125" y2="106.35546875" stroke="#000000" stroke-width="1.0"/>
<text x="48.673828125" y="253.84375" font-family="Arial" font-size="12.0" fill="#ff0000">Juan</text>
<line x1="61.6845703125" y1="125.76171875" x2="61.6845703125" y2="239.98046875" stroke="#000000" stroke-width="1.0"/>
<text x="48.673828125" y="267.25" font-family="Arial" font-size="12.0" fill="#0000ff">John</text>
<text x="132.894287109375" y="53.40625" font-family="Arial" font-size="12.0" fill="#000000">I'</text>
<line x1="88.1087646484375" y1="25.54296875" x2="135.706787109375" y2="39.54296875" stroke="#000000" stroke-width="1.0"/>
<text x="95.3603515625" y="86.8125" font-family="Arial" font-size="12.0" fill="#000000">I0</text>
<line x1="135.706787109375" y1="58.94921875" x2="100.3642578125" y2="72.94921875" stroke="#000000" stroke-width="1.0"/>
<text x="163.04541015625" y="86.8125" font-family="Arial" font-size="12.0" fill="#000000">VP</text>
<line x1="135.706787109375" y1="58.94921875" x2="171.04931640625" y2="72.94921875" stroke="#000000" stroke-width="1.0"/>
<text x="165.90185546875" y="120.21875" font-family="Arial" font-size="12.0" fill="#000000">V'</text>
<line x1="171.04931640625" y1="92.35546875" x2="171.04931640625" y2="106.35546875" stroke="#000000" stroke-width="1.0"/>
<text x="134.705078125" y="153.625" font-family="Arial" font-size="12.0" fill="#000000">V</text>
<line x1="171.04931640625" y1="125.76171875" x2="138.70703125" y2="139.76171875" stroke="#000000" stroke-width="1.0"/>
<text x="129.3701171875" y="253.84375" font-family="Arial" font-size="12.0" fill="#ff0000">kita</text>
<line x1="138.70703125" y1="159.16796875" x2="138.70703125" y2="239.98046875" stroke="#000000" stroke-width="1.0"/>
<text x="126.033203125" y="267.25" font-family="Arial" font-size="12.0" fill="#0000ff">sees</text>
<text x="195.056640625" y="153.625" font-family="Arial" font-size="12.0" fill="#000000">NP</text>
<line x1="171.04931640625" y1="125.76171875" x2="203.3916015625" y2="139.76171875" stroke="#000000" stroke-width="1.0"/>
<text x="171.380859375" y="187.03125" font-family="Arial" font-size="12.0" fill="#000000">Det</text>
<line x1="203.3916015625" y1="159.16796875" x2="180.7177734375" y2="173.16796875" stroke="#000000" stroke-width="1.0"/>
<text x="177.380859375" y="253.84375" font-family="Arial" font-size="12.0" fill="#ff0000">n</text>
<line x1="180.7177734375" y1="192.57421875" x2="180.7177734375" y2="239.98046875" stroke="#000000" stroke-width="1.0"/>
<text x="172.376953125" y="267.25" font-family="Arial" font-size="12.0" fill="#0000ff">the</text>
<text x="220.5869140625" y="187.03125" font-family="Arial" font-size="12.0" fill="#000000">N'</text>
<line x1="203.3916015625" y1="159.16796875" x2="226.0654296875" y2="173.16796875" stroke="#000000" stroke-width="1.0"/>
<text x="221.732421875" y="220.4375" font-family="Arial" font-size="12.0" fill="#000000">N</text>
<line x1="226.0654296875" y1="192.57421875" x2="226.0654296875" y2="206.57421875" stroke="#000000" stroke-width="1.0"/>
<text x="213.3916015625" y="253.84375" font-family="Arial" font-size="12.0" fill="#ff0000">koatl</text>
<line x1="226.0654296875" y1="225.98046875" x2="226.0654296875" y2="239.98046875" stroke="#000000" stroke-width="1.0"/>
<text x="210.0546875" y="267.25" font-family="Arial" font-size="12.0" fill="#0000ff">snake</text>
</svg>
